<svg width="26" height="26" viewBox="0 0 26 26" fill="none" xmlns="http://www.w3.org/2000/svg">
<path d="M17.0924 14.0692C15.3648 20.6699 12.1321 25.542 9.87196 24.9515C7.61183 24.361 7.18011 18.5314 8.9077 11.9308C10.6353 5.33012 13.868 0.457961 16.1281 1.04848C18.3882 1.63901 18.8199 7.4686 17.0924 14.0692Z" stroke="#2E2E5D"/>
<path d="M17.0354 8.96847C21.8638 13.7928 23.9715 19.5087 21.743 21.7353C19.5145 23.9619 13.7936 21.856 8.96516 17.0317C4.13669 12.2074 2.02901 6.49152 4.25754 4.26492C6.48606 2.03832 12.2069 4.14417 17.0354 8.96847Z" stroke="#2E2E5D"/>
<path d="M11.8384 8.66837C18.4342 6.90255 24.3012 7.4104 24.9428 9.80267C25.5843 12.1949 20.7575 15.5657 14.1616 17.3316C7.56583 19.0974 1.69878 18.5895 1.05722 16.1973C0.41566 13.805 5.24254 10.4342 11.8384 8.66837Z" stroke="#2E2E5D"/>
<path d="M15.2344 12.9999C15.2344 14.2328 14.2341 15.2322 13.0002 15.2322C11.7662 15.2322 10.7659 14.2328 10.7659 12.9999C10.7659 11.767 11.7662 10.7676 13.0002 10.7676C14.2341 10.7676 15.2344 11.767 15.2344 12.9999Z" stroke="#2E2E5D"/>
<path d="M9.88959 3.70666C9.88959 4.26433 9.43712 4.71641 8.87897 4.71641C8.32081 4.71641 7.86834 4.26433 7.86834 3.70666C7.86834 3.14899 8.32081 2.6969 8.87897 2.6969C9.43712 2.6969 9.88959 3.14899 9.88959 3.70666Z" stroke="#2E2E5D"/>
<path d="M24.4232 13.0001C24.4232 13.5577 23.9707 14.0098 23.4126 14.0098C22.8544 14.0098 22.4019 13.5577 22.4019 13.0001C22.4019 12.4424 22.8544 11.9903 23.4126 11.9903C23.9707 11.9903 24.4232 12.4424 24.4232 13.0001Z" stroke="#2E2E5D"/>
<path d="M8.98247 21.8087C8.98247 22.3663 8.53 22.8184 7.97184 22.8184C7.41369 22.8184 6.96122 22.3663 6.96122 21.8087C6.96122 21.251 7.41369 20.7989 7.97184 20.7989C8.53 20.7989 8.98247 21.251 8.98247 21.8087Z" stroke="#2E2E5D"/>
</svg>
