<svg width="24" height="24" viewBox="0 0 24 24" fill="none" xmlns="http://www.w3.org/2000/svg">
<path d="M2.66672 19.7008C2.55045 20.3166 3.0227 20.8864 3.64935 20.8864H20.3475C20.9752 20.8864 21.4477 20.3148 21.3297 19.6983L19.2903 9.04829C19.2001 8.57708 18.788 8.23636 18.3082 8.23636H5.66021C5.17947 8.23636 4.76676 8.57843 4.67757 9.05082L2.66672 19.7008Z" stroke="#14142A" stroke-linecap="round" stroke-linejoin="round"/>
<path d="M11.9802 7.465C13.5348 7.465 14.795 6.20481 14.795 4.65028C14.795 3.09575 13.5348 1.83556 11.9802 1.83556C10.4257 1.83556 9.16553 3.09575 9.16553 4.65028C9.16553 6.20481 10.4257 7.465 11.9802 7.465Z" stroke="#14142A" stroke-linecap="round" stroke-linejoin="round"/>
</svg>
