<svg width="25" height="25" viewBox="0 0 25 25" fill="none" xmlns="http://www.w3.org/2000/svg">
<path d="M22.9523 11.5994L23.5608 10.5454C23.8034 10.1252 23.6595 9.58796 23.2393 9.34538L22.0093 8.63527C21.5892 8.39269 21.0519 8.53665 20.8093 8.95681L20.2008 10.0108M22.9523 11.5994L19.6078 17.3923C17.182 21.5939 11.8094 23.0335 7.60775 20.6077C3.40614 18.1819 1.96656 12.8093 4.39236 8.6077L7.73689 2.8148M22.9523 11.5994L20.2008 10.0108M20.2008 10.0108L16.8563 15.8037C15.3078 18.4857 11.8783 19.4047 9.19634 17.8562C6.51433 16.3077 5.59541 12.8783 7.14386 10.1963L10.4884 4.40338M10.4884 4.40338L11.0969 3.34935C11.3395 2.92919 11.1956 2.39193 10.7754 2.14935L9.54544 1.43923C9.12528 1.19665 8.58802 1.34061 8.34544 1.76077L7.73689 2.8148M10.4884 4.40338L7.73689 2.8148" stroke="#14142A" stroke-linecap="round" stroke-linejoin="round"/>
</svg>
