<svg width="24" height="24" viewBox="0 0 24 24" fill="none" xmlns="http://www.w3.org/2000/svg">
<path d="M20.6933 17.3294C21.0506 15.9959 21.0964 14.5982 20.8271 13.2442C20.5577 11.8902 19.9806 10.6164 19.1402 9.52116C18.2998 8.42595 17.2187 7.53874 15.9806 6.92816C14.7425 6.31759 13.3805 6.00002 12 6.00002C10.6195 6.00002 9.25752 6.31759 8.0194 6.92816C6.78128 7.53874 5.70021 8.42595 4.85982 9.52116C4.01943 10.6164 3.44225 11.8902 3.17293 13.2442C2.90361 14.5982 2.94937 15.9959 3.30667 17.3294" stroke="#14142A" stroke-linecap="round"/>
<path d="M12.7659 15.5823C13.2534 16.2917 12.9106 17.3738 12.0003 17.9994C11.0899 18.625 9.95676 18.5571 9.4693 17.8477C8.92542 17.0563 6.98525 12.4342 5.9189 9.85246C5.74923 9.44167 6.25216 9.09606 6.57483 9.40171C8.60269 11.3227 12.2221 14.7908 12.7659 15.5823Z" stroke="#14142A"/>
<path d="M12 6.00002V8.00002" stroke="#14142A" stroke-linecap="round"/>
<path d="M5.63623 8.63576L7.05044 10.05" stroke="#14142A" stroke-linecap="round"/>
<path d="M18.3643 8.63576L16.95 10.05" stroke="#14142A" stroke-linecap="round"/>
<path d="M20.6934 17.3291L18.7615 16.8115" stroke="#14142A" stroke-width="0.829188" stroke-linecap="round"/>
<path d="M3.30664 17.3291L5.23849 16.8115" stroke="#14142A" stroke-width="0.829188" stroke-linecap="round"/>
</svg>
