<svg width="26" height="26" viewBox="0 0 26 26" fill="none" xmlns="http://www.w3.org/2000/svg">
<path d="M7.84096 19.747L7.49648 20.1094C7.59477 20.2029 7.72679 20.2524 7.86228 20.2466C7.99776 20.2408 8.12509 20.1802 8.21506 20.0788L7.84096 19.747ZM4.59772 14.1296L4.49748 13.6397C4.36463 13.6669 4.24852 13.7469 4.17577 13.8613C4.10301 13.9758 4.07986 14.1148 4.11162 14.2467L4.59772 14.1296ZM8.61684 13.3071L9.04985 13.0571C8.94225 12.8707 8.72745 12.7741 8.5166 12.8173L8.61684 13.3071ZM10.5628 16.6776L10.9369 17.0093C11.0797 16.8483 11.1034 16.614 10.9958 16.4276L10.5628 16.6776ZM5.71789 17.2256L6.15095 16.9757L5.71789 17.2256ZM21.4023 14.1296L21.8884 14.2467C21.9201 14.1149 21.897 13.9758 21.8242 13.8613C21.7515 13.7469 21.6354 13.6669 21.5025 13.6397L21.4023 14.1296ZM18.159 19.747L17.7849 20.0788C17.8749 20.1802 18.0022 20.2408 18.1377 20.2466C18.2732 20.2524 18.4052 20.2029 18.5035 20.1095L18.159 19.747ZM15.4372 16.6776L15.0042 16.4276C14.8966 16.614 14.9203 16.8483 15.0631 17.0093L15.4372 16.6776ZM17.3832 13.3071L17.4834 12.8173C17.2725 12.7741 17.0577 12.8707 16.9501 13.0571L17.3832 13.3071ZM20.2802 17.2289L20.7131 17.479L20.2802 17.2289ZM9.75675 5.19385L9.61515 4.71432C9.48509 4.75273 9.37621 4.84231 9.31347 4.96254C9.25074 5.08276 9.23953 5.22331 9.28241 5.35196L9.75675 5.19385ZM16.2432 5.19385L16.7176 5.35196C16.7605 5.22332 16.7493 5.08278 16.6865 4.96255C16.6238 4.84233 16.5149 4.75275 16.3849 4.71433L16.2432 5.19385ZM14.9459 9.08574V9.58574C15.1612 9.58574 15.3522 9.44803 15.4203 9.24385L14.9459 9.08574ZM11.054 9.08574L10.5797 9.24385C10.6478 9.44803 10.8388 9.58574 11.054 9.58574V9.08574ZM13.0019 4.61594L13.002 4.11594L13.0019 4.61594ZM4.69796 14.6194L8.71708 13.797L8.5166 12.8173L4.49748 13.6397L4.69796 14.6194ZM8.18383 13.5571L10.1298 16.9276L10.9958 16.4276L9.04985 13.0571L8.18383 13.5571ZM10.1887 16.3459L7.46686 19.4153L8.21506 20.0788L10.9369 17.0093L10.1887 16.3459ZM7.84096 19.747C8.18544 19.3846 8.18547 19.3847 8.18549 19.3847C8.18549 19.3847 8.1855 19.3847 8.1855 19.3847C8.1855 19.3847 8.18547 19.3847 8.18542 19.3846C8.18533 19.3845 8.18515 19.3844 8.18488 19.3841C8.18433 19.3836 8.18344 19.3827 8.18221 19.3816C8.17974 19.3792 8.17591 19.3755 8.17078 19.3706C8.16051 19.3607 8.14507 19.3458 8.12501 19.3263C8.08488 19.2872 8.02634 19.2296 7.95386 19.1569C7.80876 19.0113 7.60865 18.8057 7.38918 18.5664C6.94314 18.0801 6.44381 17.4832 6.15095 16.9757L5.28483 17.4755C5.63537 18.0829 6.19757 18.7467 6.65222 19.2424C6.88309 19.4941 7.09311 19.7098 7.24555 19.8628C7.32185 19.9394 7.38393 20.0004 7.42723 20.0426C7.44889 20.0637 7.46587 20.0801 7.47759 20.0913C7.48346 20.097 7.48801 20.1013 7.49118 20.1044C7.49277 20.1059 7.49401 20.1071 7.49489 20.1079C7.49533 20.1083 7.49569 20.1087 7.49595 20.1089C7.49609 20.1091 7.4962 20.1092 7.49628 20.1092C7.49633 20.1093 7.49638 20.1093 7.4964 20.1094C7.49644 20.1094 7.49648 20.1094 7.84096 19.747ZM6.15095 16.9757C5.85843 16.4688 5.59156 15.7386 5.39376 15.1099C5.29643 14.8005 5.21858 14.5248 5.16512 14.3265C5.13842 14.2275 5.11789 14.1481 5.10412 14.0939C5.09724 14.0668 5.09205 14.046 5.08864 14.0322C5.08694 14.0253 5.08567 14.0201 5.08487 14.0168C5.08446 14.0152 5.08417 14.014 5.08399 14.0132C5.08391 14.0129 5.08385 14.0126 5.08382 14.0125C5.0838 14.0124 5.08379 14.0124 5.08379 14.0124C5.08379 14.0124 5.0838 14.0124 5.0838 14.0124C5.0838 14.0124 5.08381 14.0125 4.59772 14.1296C4.11162 14.2467 4.11163 14.2467 4.11164 14.2468C4.11165 14.2468 4.11167 14.2469 4.11168 14.2469C4.11171 14.247 4.11175 14.2472 4.11179 14.2474C4.11187 14.2477 4.11199 14.2482 4.11213 14.2488C4.11242 14.25 4.11283 14.2516 4.11334 14.2538C4.11438 14.258 4.11588 14.2641 4.11783 14.272C4.12173 14.2878 4.12743 14.3107 4.13486 14.34C4.14972 14.3985 4.1715 14.4827 4.19961 14.5869C4.25577 14.7952 4.33747 15.0846 4.43985 15.41C4.64147 16.0509 4.93469 16.8688 5.28483 17.4755L6.15095 16.9757ZM18.5331 19.4153L15.8113 16.3459L15.0631 17.0093L17.7849 20.0788L18.5331 19.4153ZM15.8702 16.9276L17.8162 13.5571L16.9501 13.0571L15.0042 16.4276L15.8702 16.9276ZM17.2829 13.797L21.302 14.6194L21.5025 13.6397L17.4834 12.8173L17.2829 13.797ZM21.4023 14.1296C20.9162 14.0124 20.9162 14.0124 20.9162 14.0124C20.9162 14.0124 20.9162 14.0124 20.9162 14.0124C20.9162 14.0124 20.9162 14.0124 20.9162 14.0125C20.9162 14.0126 20.9161 14.0128 20.916 14.0132C20.9158 14.0139 20.9155 14.0151 20.9151 14.0168C20.9143 14.0201 20.9131 14.0253 20.9114 14.0322C20.9079 14.046 20.9027 14.0668 20.8959 14.094C20.8821 14.1483 20.8615 14.2277 20.8347 14.3269C20.7812 14.5253 20.7032 14.8014 20.6057 15.1111C20.4076 15.7406 20.1403 16.4715 19.8472 16.9788L20.7131 17.479C21.0639 16.8717 21.3576 16.053 21.5596 15.4114C21.6622 15.0856 21.744 14.7958 21.8002 14.5873C21.8284 14.483 21.8502 14.3987 21.8651 14.3401C21.8725 14.3108 21.8782 14.2879 21.8821 14.2721C21.8841 14.2642 21.8856 14.2581 21.8866 14.2538C21.8872 14.2517 21.8876 14.25 21.8878 14.2488C21.888 14.2482 21.8881 14.2478 21.8882 14.2474C21.8882 14.2472 21.8883 14.2471 21.8883 14.247C21.8883 14.2469 21.8883 14.2468 21.8883 14.2468C21.8883 14.2468 21.8884 14.2467 21.4023 14.1296ZM19.8472 16.9788C19.5545 17.4856 19.0556 18.0818 18.61 18.5675C18.3908 18.8064 18.1909 19.0118 18.0459 19.1572C17.9735 19.2298 17.915 19.2873 17.8749 19.3263C17.8549 19.3458 17.8395 19.3607 17.8292 19.3706C17.8241 19.3755 17.8203 19.3792 17.8178 19.3815C17.8166 19.3827 17.8157 19.3836 17.8151 19.3841C17.8149 19.3843 17.8147 19.3845 17.8146 19.3846C17.8145 19.3846 17.8145 19.3847 17.8145 19.3847C17.8145 19.3847 17.8145 19.3847 17.8145 19.3847C17.8146 19.3846 17.8146 19.3846 18.159 19.747C18.5035 20.1095 18.5035 20.1094 18.5036 20.1094C18.5036 20.1094 18.5036 20.1093 18.5037 20.1093C18.5038 20.1092 18.5039 20.1091 18.504 20.109C18.5043 20.1087 18.5046 20.1084 18.5051 20.108C18.506 20.1071 18.5072 20.1059 18.5088 20.1044C18.5119 20.1014 18.5165 20.097 18.5223 20.0914C18.5341 20.0801 18.551 20.0638 18.5727 20.0427C18.6159 20.0006 18.6779 19.9396 18.7541 19.8631C18.9064 19.7104 19.1162 19.4949 19.3469 19.2435C19.8011 18.7485 20.3628 18.0856 20.7131 17.479L19.8472 16.9788ZM15.7689 5.03573L14.4716 8.92763L15.4203 9.24385L16.7176 5.35196L15.7689 5.03573ZM14.9459 8.58574H11.054V9.58574H14.9459V8.58574ZM11.5284 8.92763L10.2311 5.03573L9.28241 5.35196L10.5797 9.24385L11.5284 8.92763ZM9.75675 5.19385C9.89836 5.67338 9.89832 5.67339 9.8983 5.6734C9.8983 5.6734 9.89828 5.6734 9.89828 5.6734C9.89828 5.6734 9.89832 5.67339 9.89838 5.67337C9.8985 5.67333 9.89875 5.67326 9.89911 5.67316C9.89982 5.67295 9.90101 5.6726 9.90264 5.67212C9.90592 5.67116 9.91102 5.66968 9.91786 5.6677C9.93154 5.66375 9.95217 5.65783 9.97912 5.65023C10.033 5.63502 10.1122 5.6131 10.2114 5.5867C10.41 5.53383 10.6881 5.46332 11.0051 5.39289C11.6492 5.24976 12.4159 5.11582 13.0018 5.11594L13.002 4.11594C12.3007 4.11579 11.4448 4.2708 10.7882 4.4167C10.4547 4.49078 10.1629 4.56479 9.9542 4.62033C9.84975 4.64813 9.76585 4.67137 9.70767 4.68778C9.67857 4.69599 9.65588 4.70249 9.64025 4.70701C9.63243 4.70927 9.62638 4.71103 9.62217 4.71226C9.62007 4.71287 9.61842 4.71336 9.61725 4.7137C9.61666 4.71387 9.61619 4.71401 9.61584 4.71412C9.61566 4.71417 9.61552 4.71421 9.6154 4.71424C9.61535 4.71426 9.61528 4.71428 9.61525 4.71429C9.6152 4.71431 9.61515 4.71432 9.75675 5.19385ZM13.0018 5.11594C13.5871 5.11606 14.3528 5.25001 14.9962 5.39307C15.3128 5.46347 15.5905 5.53393 15.789 5.58676C15.8881 5.61314 15.9671 5.63505 16.0209 5.65024C16.0478 5.65784 16.0685 5.66375 16.0821 5.6677C16.0889 5.66967 16.094 5.67115 16.0973 5.67211C16.0989 5.67259 16.1001 5.67294 16.1008 5.67315C16.1012 5.67325 16.1014 5.67332 16.1016 5.67336C16.1016 5.67338 16.1017 5.67339 16.1017 5.67339C16.1017 5.67339 16.1017 5.67338 16.1017 5.67338C16.1016 5.67338 16.1016 5.67337 16.2432 5.19385C16.3849 4.71433 16.3848 4.71432 16.3848 4.7143C16.3847 4.71429 16.3847 4.71427 16.3846 4.71426C16.3845 4.71422 16.3844 4.71418 16.3842 4.71413C16.3838 4.71402 16.3834 4.71389 16.3828 4.71371C16.3816 4.71337 16.38 4.71289 16.3779 4.71227C16.3737 4.71104 16.3676 4.70928 16.3598 4.70703C16.3442 4.70251 16.3215 4.69601 16.2925 4.68781C16.2344 4.67142 16.1506 4.64819 16.0462 4.62042C15.8378 4.56492 15.5463 4.49096 15.2133 4.41691C14.5575 4.27109 13.7025 4.11608 13.002 4.11594L13.0018 5.11594ZM14.4459 13.0235C14.4459 13.8221 13.7986 14.4694 13 14.4694V15.4694C14.3509 15.4694 15.4459 14.3743 15.4459 13.0235H14.4459ZM13 14.4694C12.2014 14.4694 11.554 13.8221 11.554 13.0235H10.554C10.554 14.3743 11.6491 15.4694 13 15.4694V14.4694ZM11.554 13.0235C11.554 12.2249 12.2014 11.5775 13 11.5775V10.5775C11.6491 10.5775 10.554 11.6726 10.554 13.0235H11.554ZM13 11.5775C13.7986 11.5775 14.4459 12.2249 14.4459 13.0235H15.4459C15.4459 11.6726 14.3509 10.5775 13 10.5775V11.5775ZM22.8784 13C22.8784 18.4557 18.4557 22.8784 13 22.8784V23.8784C19.008 23.8784 23.8784 19.008 23.8784 13H22.8784ZM13 22.8784C7.54432 22.8784 3.12162 18.4557 3.12162 13H2.12162C2.12162 19.008 6.99204 23.8784 13 23.8784V22.8784ZM3.12162 13C3.12162 7.54432 7.54432 3.12162 13 3.12162V2.12162C6.99204 2.12162 2.12162 6.99204 2.12162 13H3.12162ZM13 3.12162C18.4557 3.12162 22.8784 7.54432 22.8784 13H23.8784C23.8784 6.99204 19.008 2.12162 13 2.12162V3.12162ZM24.5 13C24.5 19.3513 19.3513 24.5 13 24.5V25.5C19.9036 25.5 25.5 19.9036 25.5 13H24.5ZM13 24.5C6.64873 24.5 1.5 19.3513 1.5 13H0.5C0.5 19.9036 6.09644 25.5 13 25.5V24.5ZM1.5 13C1.5 6.64873 6.64873 1.5 13 1.5V0.5C6.09644 0.5 0.5 6.09644 0.5 13H1.5ZM13 1.5C19.3513 1.5 24.5 6.64873 24.5 13H25.5C25.5 6.09644 19.9036 0.5 13 0.5V1.5Z" fill="#14142A"/>
</svg>
