<svg width="16" height="26" viewBox="0 0 16 26" fill="none" xmlns="http://www.w3.org/2000/svg">
<path d="M10.9932 23.7101L11.1981 24.1662L10.9932 23.7101ZM8.23529 24.949L8.44018 25.4051H8.44018L8.23529 24.949ZM7.7647 24.949L7.55981 25.4051H7.55981L7.7647 24.949ZM5.00682 23.7101L4.80193 24.1662H4.80193L5.00682 23.7101ZM11.0305 18.9265L10.7086 19.3091L11.0305 18.9265ZM6.89497 19.8595C6.61882 19.8595 6.39497 20.0833 6.39497 20.3595C6.39497 20.6356 6.61882 20.8595 6.89497 20.8595V19.8595ZM6.0799 21.8725C6.35604 21.8725 6.5799 21.6487 6.5799 21.3725C6.5799 21.0964 6.35604 20.8725 6.0799 20.8725V21.8725ZM8.04964 21.8847C7.7735 21.8847 7.54964 22.1086 7.54964 22.3847C7.54964 22.6608 7.7735 22.8847 8.04964 22.8847V21.8847ZM8.39822 6.74052C8.67436 6.74052 8.89822 6.51667 8.89822 6.24052C8.89822 5.96438 8.67436 5.74052 8.39822 5.74052V6.74052ZM7.97012 18.4152C7.97012 18.6914 8.19398 18.9152 8.47012 18.9152C8.74626 18.9152 8.97012 18.6914 8.97012 18.4152H7.97012ZM8.47012 13.019L8.46767 12.519L8.47012 13.019ZM8.47012 11.6065L8.46767 12.1065L8.47012 11.6065ZM8.47012 10.336L8.47363 10.836L8.47012 10.336ZM8.47012 15.7021H8.97012C8.97012 15.426 8.74626 15.2021 8.47012 15.2021V15.7021ZM1.5 7.95726C1.5 4.3939 4.40726 1.5 8 1.5V0.5C3.86076 0.5 0.5 3.83585 0.5 7.95726H1.5ZM8 1.5C11.5927 1.5 14.5 4.3939 14.5 7.95726H15.5C15.5 3.83585 12.1392 0.5 8 0.5V1.5ZM4.03299 14.2976C4.03299 12.9644 3.29812 11.8979 2.68546 10.9573C2.04558 9.97491 1.5 9.08458 1.5 7.95726H0.5C0.5 9.41848 1.22092 10.5411 1.84753 11.5031C2.50137 12.5069 3.03299 13.3163 3.03299 14.2976H4.03299ZM14.5 7.95726C14.5 9.08641 13.9525 9.99856 13.3132 10.9904C12.704 11.9357 11.967 13.0053 11.967 14.2976H12.967C12.967 13.3584 13.4964 12.5521 14.1538 11.5322C14.781 10.5589 15.5 9.41664 15.5 7.95726H14.5ZM10.7883 23.254L8.0304 24.4929L8.44018 25.4051L11.1981 24.1662L10.7883 23.254ZM7.96959 24.4929L5.21171 23.254L4.80193 24.1662L7.55981 25.4051L7.96959 24.4929ZM8.0304 24.4929C8.00941 24.5024 7.99058 24.5024 7.96959 24.4929L7.55981 25.4051C7.84144 25.5316 8.15855 25.5316 8.44018 25.4051L8.0304 24.4929ZM4.09482 23.0159C4.09482 23.4881 4.34672 23.9617 4.80193 24.1662L5.21171 23.254C5.17003 23.2353 5.09482 23.1577 5.09482 23.0159H4.09482ZM10.9052 23.0159C10.9052 23.1577 10.83 23.2353 10.7883 23.254L11.1981 24.1662C11.6533 23.9617 11.9052 23.4881 11.9052 23.0159H10.9052ZM10.3474 18.1779H5.65257V19.1779H10.3474V18.1779ZM10.3474 19.1779C10.486 19.1779 10.6113 19.2272 10.7086 19.3091L11.3524 18.5439C11.0811 18.3156 10.7296 18.1779 10.3474 18.1779V19.1779ZM10.7086 19.3091C10.8302 19.4114 10.9052 19.5617 10.9052 19.7292H11.9052C11.9052 19.253 11.6892 18.8273 11.3524 18.5439L10.7086 19.3091ZM11.967 14.2976C11.967 16.4837 11.4113 17.8081 10.6699 18.5801L11.3911 19.2728C12.3698 18.2538 12.967 16.6432 12.967 14.2976H11.967ZM5.09482 19.7292C5.09482 19.5617 5.16981 19.4114 5.29136 19.3091L4.64742 18.544C4.31073 18.8274 4.09482 19.2531 4.09482 19.7292H5.09482ZM5.29136 19.3091C5.38865 19.2272 5.51397 19.1779 5.65257 19.1779V18.1779C5.27031 18.1779 4.91873 18.3157 4.64742 18.544L5.29136 19.3091ZM5.33002 18.5802C4.58863 17.8082 4.03299 16.4838 4.03299 14.2976H3.03299C3.03299 16.6433 3.63016 18.2539 4.60875 19.2729L5.33002 18.5802ZM10.9052 19.7292V20.3595H11.9052V19.7292H10.9052ZM11.4052 19.8595H6.89497V20.8595H11.4052V19.8595ZM5.09482 23.0159V21.3725H4.09482V23.0159H5.09482ZM5.09482 21.3725V19.7292H4.09482V21.3725H5.09482ZM4.59482 21.8725H6.0799V20.8725H4.59482V21.8725ZM10.9052 20.3595V22.3847H11.9052V20.3595H10.9052ZM10.9052 22.3847V23.0159H11.9052V22.3847H10.9052ZM11.4052 21.8847H8.04964V22.8847H11.4052V21.8847ZM5.63932 8.28841C5.63932 7.95619 5.85485 7.58103 6.35986 7.26369C6.85817 6.95055 7.57752 6.74052 8.39822 6.74052V5.74052C7.41908 5.74052 6.50898 5.98893 5.82779 6.41698C5.15331 6.84083 4.63932 7.48962 4.63932 8.28841H5.63932ZM8.39822 15.2021C7.57752 15.2021 6.85817 14.9921 6.35986 14.679C5.85485 14.3616 5.63932 13.9865 5.63932 13.6542H4.63932C4.63932 14.453 5.15331 15.1018 5.82779 15.5257C6.50898 15.9537 7.41908 16.2021 8.39822 16.2021V15.2021ZM8.39822 9.42344C8.87405 9.42344 9.44973 9.45876 9.89281 9.55429C10.1187 9.60298 10.2719 9.65955 10.3565 9.71046C10.4454 9.76387 10.3607 9.74518 10.3607 9.62987H11.3607C11.3607 9.23305 11.0911 8.9853 10.8719 8.85346C10.6485 8.71913 10.3704 8.63428 10.1036 8.57675C9.56126 8.45983 8.90571 8.42344 8.39822 8.42344V9.42344ZM5.63932 10.9713C5.63932 10.669 5.81559 10.3343 6.22904 10.0348L5.64248 9.22492C5.06362 9.64416 4.63932 10.2474 4.63932 10.9713H5.63932ZM6.22904 10.0348C6.7259 9.67498 7.49952 9.42344 8.39822 9.42344V8.42344C7.33026 8.42344 6.34067 8.71926 5.64248 9.22492L6.22904 10.0348ZM8.39822 9.8363C7.49952 9.8363 6.7259 9.58476 6.22904 9.22492L5.64248 10.0348C6.34067 10.5405 7.33026 10.8363 8.39822 10.8363V9.8363ZM6.22904 9.22492C5.81559 8.92548 5.63932 8.59072 5.63932 8.28841H4.63932C4.63932 9.01229 5.06362 9.61558 5.64248 10.0348L6.22904 9.22492ZM5.63932 13.6542C5.63932 13.3519 5.81559 13.0172 6.22904 12.7177L5.64248 11.9078C5.06362 12.3271 4.63932 12.9304 4.63932 13.6542H5.63932ZM6.22904 12.7177C6.7259 12.3579 7.49952 12.1064 8.39822 12.1064V11.1064C7.33026 11.1064 6.34067 11.4022 5.64248 11.9078L6.22904 12.7177ZM8.39822 12.5192C7.49952 12.5192 6.7259 12.2677 6.22904 11.9078L5.64248 12.7177C6.34067 13.2234 7.33026 13.5192 8.39822 13.5192V12.5192ZM6.22904 11.9078C5.81559 11.6084 5.63932 11.2736 5.63932 10.9713H4.63932C4.63932 11.6952 5.06362 12.2985 5.64248 12.7177L6.22904 11.9078ZM10.3607 12.3128C10.3607 12.2262 10.4241 12.2086 10.357 12.2512C10.2834 12.298 10.1442 12.352 9.92891 12.398C9.50621 12.4885 8.95073 12.5167 8.46767 12.519L8.47257 13.519C8.97134 13.5166 9.61114 13.4887 10.1383 13.3759C10.3979 13.3203 10.6722 13.2358 10.8934 13.0952C11.1212 12.9504 11.3607 12.6965 11.3607 12.3128H10.3607ZM8.46767 12.519C8.44428 12.5192 8.42112 12.5192 8.39822 12.5192V13.5192C8.42269 13.5192 8.44748 13.5192 8.47257 13.519L8.46767 12.519ZM8.39822 12.1064C8.42112 12.1064 8.44428 12.1064 8.46767 12.1065L8.47257 11.1065C8.44748 11.1064 8.42269 11.1064 8.39822 11.1064V12.1064ZM8.46767 12.1065C8.95073 12.1089 9.50621 12.137 9.92891 12.2275C10.1442 12.2736 10.2834 12.3276 10.357 12.3744C10.4241 12.417 10.3607 12.3994 10.3607 12.3128H11.3607C11.3607 11.929 11.1212 11.6752 10.8934 11.5304C10.6722 11.3898 10.3979 11.3053 10.1383 11.2497C9.61114 11.1368 8.97134 11.109 8.47257 11.1065L8.46767 12.1065ZM10.3607 9.62987C10.3607 9.51771 10.4416 9.49656 10.3617 9.54613C10.2838 9.59441 10.1401 9.6499 9.92369 9.69865C9.49923 9.79428 8.94224 9.83272 8.46661 9.83606L8.47363 10.836C8.97983 10.8325 9.61812 10.7926 10.1435 10.6742C10.402 10.6159 10.6718 10.5305 10.8887 10.396C11.1036 10.2627 11.3607 10.0168 11.3607 9.62987H10.3607ZM8.46661 9.83606C8.44354 9.83622 8.42073 9.8363 8.39822 9.8363V10.8363C8.42308 10.8363 8.44823 10.8362 8.47363 10.836L8.46661 9.83606ZM8.97012 18.4152V15.7021H7.97012V18.4152H8.97012ZM8.39822 16.2021H8.47012V15.2021H8.39822V16.2021Z" fill="#14142A"/>
</svg>
